<?xml version="1.0" encoding="UTF-8" standalone="no"?>
<svg viewBox="0 0 1000 1000" version="1.1" width="1000" height="1000" xmlns="http://www.w3.org/2000/svg" xmlns:svg="http://www.w3.org/2000/svg">
<path style="fill:#fe5e00;" d="M 1000,931.88949 C 994.27848,909.0034 980.54682,890.69453 956.51643,887.26162 939.35186,884.97301 931.57702,877.00945 921.04299,864.37553 910.50896,851.74161 898.4362,842.41987 898.1569,823.18057 V 610.33993 c 0,-8.01013 1.1443,-14.87596 5.72152,-21.74179 C 964.52656,479.88922 953.08352,373.4689 885.56955,272.7701 851.94734,226.04186 777.36024,121.71494 746.39572,77.19122 731.96935,56.447611 732.12099,55.714902 725.56501,56.063823 c 0.60501,41.058652 0.94622,119.440397 0.94622,119.440397 l -3.43292,1.14431 c 0,0 -50.97224,-78.569176 -69.99729,-109.214829 -7.90256,-12.729495 -8.49433,-10.843201 -13.58177,-11.050262 0.22597,29.754503 0.77358,86.382621 0.0928,133.019071 -0.23609,16.17368 -2.39958,21.3837 -9.51379,29.50683 -7.11421,8.12313 -30.83227,33.98608 -36.87647,39.82162 -12.08842,11.67108 -24.53894,11.07166 -36.15396,11.08146 -11.61501,0.01 -54.82029,-0.47523 -85.71651,-0.47523 0,3.43291 0,5.72152 1.14431,6.86583 18.30887,65.22535 81.24562,115.57475 149.90389,117.86336 h 80.10131 c -62.76709,68.10437 -131.143,132.40063 -196.82037,197.96468 -38.90636,40.05066 -72.09119,83.53423 -93.83297,136.17223 -26.319,66.36966 -29.75192,136.17224 -29.75192,205.97481 0,10.29874 6.86583,9.15444 12.58735,9.15444 h 125.8735 c 93.83296,0 186.52163,-1.14431 279.21029,0 13.73166,0 14.87596,-5.72152 12.58735,-16.02026 -5.72152,-22.88609 -27.46331,-41.19497 -51.4937,-41.19497 -16.02026,-1.1443 -30.89622,0 -48.06079,0 28.60761,-44.62787 37.76205,-77.8127 27.46331,-137.31654 5.72152,6.86583 9.15444,11.44305 12.58735,14.87596 44.62787,57.21523 90.40005,113.28615 135.02793,169.35707 4.57722,5.72152 8.01013,11.44304 17.16457,11.44304 28.60761,-1.1443 57.21522,-1.1443 84.67853,0 11.44304,0 12.58734,-4.57722 10.29874,-12.58735 z M 686.46057,288.79037 c -12.38926,-0.15771 -21.77116,-10.31456 -21.74179,-21.74179 0.0267,-10.36209 7.747,-21.22035 20.59748,-21.74178 12.59242,-0.51097 22.10373,9.124 22.88609,20.59748 0.88685,13.00579 -10.29966,23.03173 -21.74178,22.88609 z M 184.11089,285.35745 C 123.46276,262.47136 61.749372,270.60516 -0.12213042,271.6258 45.324426,296.16121 97.618981,317.68132 95.999447,412.37525 c -2.288609,92.68867 0,184.23303 0,276.92169 0,133.88363 100.698793,242.59255 234.582423,252.89129 18.30887,1.14431 18.30887,1.14431 18.30887,-18.30887 V 522.22848 c 0,-106.42031 -65.22536,-200.25328 -164.77985,-236.87103 z"/>
</svg>
